<svg xmlns="http://www.w3.org/2000/svg" viewBox="134 0 22 14">
<path d="M139.641 13.4715C138.521 13.6015 136.801 13.5615 135.751 13.4515C134.471 13.3115 134.031 13.0515 134.011 10.0515C134.001 8.43146 133.961 6.54147 134.141 2.81147C134.271 0.421465 134.791 0.32146 135.751 0.14146C136.461 0.00145978 137.991 -0.0985359 139.481 0.161464C140.581 0.351464 141.331 0.331465 141.341 2.63147C141.351 4.99147 141.351 7.31146 141.321 10.0715C141.271 12.4815 141.101 13.3015 139.641 13.4715Z" fill="#F9F9F6" />
<path d="M153.811 13.5616C152.711 13.6916 150.971 13.6515 149.921 13.5415C148.651 13.4015 148.201 13.1415 148.181 10.1415C148.171 8.52155 148.131 6.63155 148.321 2.90155C148.441 0.51155 148.961 0.411552 149.931 0.231552C150.631 0.091552 152.171 -0.00845131 153.651 0.251549C154.771 0.441549 155.501 0.42155 155.511 2.72155C155.521 5.08155 155.531 7.40155 155.491 10.1616C155.451 12.5716 155.271 13.3916 153.811 13.5616Z" fill="#F9F9F6" />
<path d="M 152.241 6.242 C 151.021 6.462 149.941 5.672 150.021 4.502 C 150.111 3.442 150.931 2.512 152.121 2.472 C 152.371 2.442 152.611 2.522 152.881 2.722 C 153.841 3.522 153.841 5.152 152.871 5.912 C 152.691 6.072 152.481 6.182 152.231 6.242 152.241 Z" fill="#2B2727" />
<path d="M 138.161 6.242 C 136.941 6.462 135.861 5.672 135.931 4.502 C 136.021 3.442 136.851 2.512 138.041 2.472 C 138.281 2.442 138.531 2.522 138.801 2.722 C 139.761 3.522 139.741 5.152 138.791 5.912 C 138.611 6.072 138.381 6.182 138.151 6.242 138.161 Z" fill="#2B2727" />
</svg>