<svg xmlns="http://www.w3.org/2000/svg" viewBox="389 2 30 9">
<clipPath id="angry-clip-right"><polygon points="419.225,2.0386 405.335,7.858599999999999 405.335,11.2686 419.225,11.2686" /></clipPath><clipPath id="angry-clip-left"><polygon points="387.955,1.96853 401.845,7.7885100000000005 401.845,11.1985 387.955,11.1985" /></clipPath><g clip-path="url(#angry-clip-left)"><path d="M389.075 8.51854C388.955 7.42853 388.995 5.72854 389.085 4.71854C389.205 3.46854 389.435 3.03854 392.035 3.00854C393.435 2.99854 395.095 2.96853 398.325 3.13853C400.415 3.24853 400.495 3.76853 400.635 4.70853C400.755 5.38853 400.845 6.90854 400.625 8.35854C400.465 9.44854 400.485 10.1685 398.485 10.1785C396.495 10.1885 394.425 10.1985 392.025 10.1585C389.935 10.1185 389.215 9.95854 389.075 8.51854Z" fill="#F9F9F6" />
<path d="M 396.119 8.946 C 394.533 9.232 393.129 8.205 393.220 6.684 C 393.337 5.306 394.416 4.097 395.963 4.045 C 396.275 4.006 396.600 4.110 396.951 4.370 C 398.199 5.410 398.173 7.529 396.938 8.517 C 396.704 8.725 396.405 8.868 396.106 8.946 396.014 Z" fill="#2B2727" />
</g><g clip-path="url(#angry-clip-right)"><path d="M406.455 8.5886C406.335 7.4986 406.375 5.7986 406.465 4.7886C406.585 3.5386 406.815 3.10861 409.415 3.07861C410.815 3.06861 412.455 3.0386 415.705 3.2086C417.795 3.3186 417.875 3.8386 418.015 4.7786C418.135 5.4586 418.225 6.9786 418.005 8.4286C417.835 9.5186 417.865 10.2386 415.865 10.2486C413.815 10.2586 411.805 10.2686 409.405 10.2286C407.315 10.1886 406.595 10.0286 406.455 8.5886Z" fill="#F9F9F6" />
<path d="M 412.109 8.946 C 410.523 9.232 409.119 8.205 409.223 6.684 C 409.340 5.306 410.406 4.097 411.953 4.045 C 412.278 4.006 412.590 4.110 412.941 4.370 C 414.189 5.410 414.189 7.529 412.928 8.517 C 412.694 8.725 412.421 8.868 412.096 8.946 412.004 Z" fill="#2B2727" />
</g><line x1="418.225" y1="3.0386" x2="406.335" y2="7.858599999999999" stroke="#231F20" stroke-width="0.75" /><line x1="388.955" y1="2.96853" x2="400.845" y2="7.7885100000000005" stroke="#231F20" stroke-width="0.75" /></svg>