<svg xmlns="http://www.w3.org/2000/svg" viewBox="389 2 30 9">
<path d="M389.075 8.51854C388.955 7.42853 388.995 5.72854 389.085 4.71854C389.205 3.46854 389.435 3.03854 392.035 3.00854C393.435 2.99854 395.095 2.96853 398.325 3.13853C400.415 3.24853 400.495 3.76853 400.635 4.70853C400.755 5.38853 400.845 6.90854 400.625 8.35854C400.465 9.44854 400.485 10.1685 398.485 10.1785C396.495 10.1885 394.425 10.1985 392.025 10.1585C389.935 10.1185 389.215 9.95854 389.075 8.51854Z" fill="#F9F9F6" />
<path d="M406.455 8.5886C406.335 7.4986 406.375 5.7986 406.465 4.7886C406.585 3.5386 406.815 3.10861 409.415 3.07861C410.815 3.06861 412.455 3.0386 415.705 3.2086C417.795 3.3186 417.875 3.8386 418.015 4.7786C418.135 5.4586 418.225 6.9786 418.005 8.4286C417.835 9.5186 417.865 10.2386 415.865 10.2486C413.815 10.2586 411.805 10.2686 409.405 10.2286C407.315 10.1886 406.595 10.0286 406.455 8.5886Z" fill="#F9F9F6" />
<path d="M 412.004 7.168 C 410.784 7.388 409.704 6.598 409.784 5.428 C 409.874 4.368 410.694 3.438 411.884 3.398 C 412.134 3.368 412.374 3.448 412.644 3.648 C 413.604 4.448 413.604 6.078 412.634 6.838 C 412.454 6.998 412.244 7.108 411.994 7.168 412.004 Z" fill="#2B2727" />
<path d="M 396.014 7.168 C 394.794 7.388 393.714 6.598 393.784 5.428 C 393.874 4.368 394.704 3.438 395.894 3.398 C 396.134 3.368 396.384 3.448 396.654 3.648 C 397.614 4.448 397.594 6.078 396.644 6.838 C 396.464 6.998 396.234 7.108 396.004 7.168 396.014 Z" fill="#2B2727" />
</svg>