<svg xmlns="http://www.w3.org/2000/svg" viewBox="511 2 29 9">
<clipPath id="angry-clip-right"><polygon points="541.208,1.7800799999999999 526.838,8.320093333333332 526.838,12.0901 541.208,12.0901" /></clipPath><clipPath id="angry-clip-left"><polygon points="509.598,1.7800799999999999 523.968,8.320093333333332 523.968,12.0901 509.598,12.0901" /></clipPath><g clip-path="url(#angry-clip-left)"><path d="M511.038 6.21008C511.508 8.47008 514.038 10.5301 516.438 10.7701C519.678 11.0901 522.968 9.73008 522.738 7.59008C522.488 5.20008 520.268 3.26008 517.338 3.03008C514.088 2.78008 510.598 4.11008 511.038 6.21008Z" fill="#F9F9F6" />
<path d="M 517.943 9.262 C 516.357 9.548 514.953 8.521 515.044 7.000 C 515.161 5.622 516.240 4.413 517.787 4.361 C 518.099 4.322 518.424 4.426 518.775 4.686 C 520.023 5.726 519.997 7.845 518.762 8.833 C 518.528 9.041 518.229 9.184 517.930 9.262 517.838 Z" fill="#2B2727" />
</g><g clip-path="url(#angry-clip-right)"><path d="M539.768 6.21008C539.298 8.47008 536.768 10.5301 534.368 10.7701C531.128 11.0901 527.838 9.73008 528.068 7.59008C528.318 5.20008 530.538 3.26008 533.468 3.03008C536.718 2.78008 540.208 4.11008 539.768 6.21008Z" fill="#F9F9F6" />
<path d="M 533.942 9.262 C 532.356 9.548 530.952 8.521 531.056 7.000 C 531.173 5.622 532.239 4.413 533.786 4.361 C 534.111 4.322 534.423 4.426 534.774 4.686 C 536.022 5.726 536.022 7.845 534.761 8.833 C 534.527 9.041 534.254 9.184 533.929 9.262 533.837 Z" fill="#2B2727" />
</g><line x1="540.208" y1="2.78008" x2="527.838" y2="8.320093333333332" stroke="#231F20" stroke-width="0.75" /><line x1="510.598" y1="2.78008" x2="522.968" y2="8.320093333333332" stroke="#231F20" stroke-width="0.75" /></svg>