<svg xmlns="http://www.w3.org/2000/svg" viewBox="389 2 30 9">
<path d="M389.075 8.51854C388.955 7.42853 388.995 5.72854 389.085 4.71854C389.205 3.46854 389.435 3.03854 392.035 3.00854C393.435 2.99854 395.095 2.96853 398.325 3.13853C400.415 3.24853 400.495 3.76853 400.635 4.70853C400.755 5.38853 400.845 6.90854 400.625 8.35854C400.465 9.44854 400.485 10.1685 398.485 10.1785C396.495 10.1885 394.425 10.1985 392.025 10.1585C389.935 10.1185 389.215 9.95854 389.075 8.51854Z" fill="#F9F9F6" />
<path d="M406.455 8.5886C406.335 7.4986 406.375 5.7986 406.465 4.7886C406.585 3.5386 406.815 3.10861 409.415 3.07861C410.815 3.06861 412.455 3.0386 415.705 3.2086C417.795 3.3186 417.875 3.8386 418.015 4.7786C418.135 5.4586 418.225 6.9786 418.005 8.4286C417.835 9.5186 417.865 10.2386 415.865 10.2486C413.815 10.2586 411.805 10.2686 409.405 10.2286C407.315 10.1886 406.595 10.0286 406.455 8.5886Z" fill="#F9F9F6" />
<path d="M 412.004 11.694 C 410.784 11.914 409.704 11.124 409.784 9.954 C 409.874 8.894 410.694 7.964 411.884 7.924 C 412.134 7.894 412.374 7.974 412.644 8.174 C 413.604 8.974 413.604 10.604 412.634 11.364 C 412.454 11.524 412.244 11.634 411.994 11.694 412.004 Z" fill="#2B2727" />
<path d="M 396.014 11.694 C 394.794 11.914 393.714 11.124 393.784 9.954 C 393.874 8.894 394.704 7.964 395.894 7.924 C 396.134 7.894 396.384 7.974 396.654 8.174 C 397.614 8.974 397.594 10.604 396.644 11.364 C 396.464 11.524 396.234 11.634 396.004 11.694 396.014 Z" fill="#2B2727" />
</svg>