<svg xmlns="http://www.w3.org/2000/svg" viewBox="259 2 23 10">
<path d="M264.725 11.4706C263.595 11.5506 261.845 11.5206 260.785 11.4506C259.485 11.3606 259.045 11.2006 259.015 9.31061C258.995 8.29061 258.965 7.10061 259.145 4.76061C259.265 3.25061 259.795 3.20061 260.765 3.08061C261.475 3.00061 263.035 2.94061 264.535 3.10061C265.665 3.22061 266.415 3.21061 266.425 4.65061C266.435 6.13061 266.455 7.59061 266.415 9.32061C266.375 10.8306 266.205 11.3506 264.725 11.4506V11.4706Z" fill="#F9F9F6" />
<path d="M280.166 11.5507C279.036 11.6307 277.286 11.6007 276.226 11.5307C274.936 11.4407 274.486 11.2807 274.456 9.39069C274.436 8.37069 274.406 7.18069 274.586 4.84069C274.706 3.33069 275.226 3.28069 276.206 3.16069C276.916 3.08069 278.476 3.02069 279.976 3.18069C281.106 3.30069 281.846 3.29069 281.866 4.73069C281.876 6.21069 281.896 7.67069 281.856 9.40069C281.816 10.9107 281.646 11.4307 280.166 11.5307V11.5507Z" fill="#F9F9F6" />
<path d="M 278.515 7.598 C 277.295 7.818 276.215 7.028 276.295 5.858 C 276.385 4.798 277.205 3.868 278.395 3.828 C 278.645 3.798 278.885 3.878 279.155 4.078 C 280.115 4.878 280.115 6.508 279.145 7.268 C 278.965 7.428 278.755 7.538 278.505 7.598 278.515 Z" fill="#2B2727" />
<path d="M 263.235 7.598 C 262.015 7.818 260.935 7.028 261.005 5.858 C 261.095 4.798 261.925 3.868 263.115 3.828 C 263.355 3.798 263.605 3.878 263.875 4.078 C 264.835 4.878 264.815 6.508 263.865 7.268 C 263.685 7.428 263.455 7.538 263.225 7.598 263.235 Z" fill="#2B2727" />
</svg>
