<svg xmlns="http://www.w3.org/2000/svg" viewBox="134 0 22 14">
<clipPath id="angry-clip-right"><polygon points="156.531,-1.00845131 147.131,9.12491623 147.131,14.6916 156.531,14.6916" /></clipPath><clipPath id="angry-clip-left"><polygon points="132.961,-1.0985359 142.351,9.034821366666666 142.351,14.6015 132.961,14.6015" /></clipPath><g clip-path="url(#angry-clip-left)"><path d="M139.641 13.4715C138.521 13.6015 136.801 13.5615 135.751 13.4515C134.471 13.3115 134.031 13.0515 134.011 10.0515C134.001 8.43146 133.961 6.54147 134.141 2.81147C134.271 0.421465 134.791 0.32146 135.751 0.14146C136.461 0.00145978 137.991 -0.0985359 139.481 0.161464C140.581 0.351464 141.331 0.331465 141.341 2.63147C141.351 4.99147 141.351 7.31146 141.321 10.0715C141.271 12.4815 141.101 13.3015 139.641 13.4715Z" fill="#F9F9F6" />
<path d="M 138.266 9.124 C 136.680 9.410 135.276 8.383 135.367 6.862 C 135.484 5.484 136.563 4.275 138.110 4.223 C 138.422 4.184 138.747 4.288 139.098 4.548 C 140.346 5.588 140.320 7.707 139.085 8.695 C 138.851 8.903 138.552 9.046 138.253 9.124 138.161 Z" fill="#2B2727" />
</g><g clip-path="url(#angry-clip-right)"><path d="M153.811 13.5616C152.711 13.6916 150.971 13.6515 149.921 13.5415C148.651 13.4015 148.201 13.1415 148.181 10.1415C148.171 8.52155 148.131 6.63155 148.321 2.90155C148.441 0.51155 148.961 0.411552 149.931 0.231552C150.631 0.091552 152.171 -0.00845131 153.651 0.251549C154.771 0.441549 155.501 0.42155 155.511 2.72155C155.521 5.08155 155.531 7.40155 155.491 10.1616C155.451 12.5716 155.271 13.3916 153.811 13.5616Z" fill="#F9F9F6" />
<path d="M 152.346 9.124 C 150.760 9.410 149.356 8.383 149.460 6.862 C 149.577 5.484 150.643 4.275 152.190 4.223 C 152.515 4.184 152.827 4.288 153.178 4.548 C 154.426 5.588 154.426 7.707 153.165 8.695 C 152.931 8.903 152.658 9.046 152.333 9.124 152.241 Z" fill="#2B2727" />
</g><line x1="155.531" y1="-0.00845131" x2="148.131" y2="9.12491623" stroke="#231F20" stroke-width="0.75" /><line x1="133.961" y1="-0.0985359" x2="141.351" y2="9.034821366666666" stroke="#231F20" stroke-width="0.75" /></svg>
