<svg xmlns="http://www.w3.org/2000/svg" viewBox="389 2 30 9">
<path d="M389.075 8.51854C388.955 7.42853 388.995 5.72854 389.085 4.71854C389.205 3.46854 389.435 3.03854 392.035 3.00854C393.435 2.99854 395.095 2.96853 398.325 3.13853C400.415 3.24853 400.495 3.76853 400.635 4.70853C400.755 5.38853 400.845 6.90854 400.625 8.35854C400.465 9.44854 400.485 10.1685 398.485 10.1785C396.495 10.1885 394.425 10.1985 392.025 10.1585C389.935 10.1185 389.215 9.95854 389.075 8.51854Z" fill="#F9F9F6" />
<path d="M406.455 8.5886C406.335 7.4986 406.375 5.7986 406.465 4.7886C406.585 3.5386 406.815 3.10861 409.415 3.07861C410.815 3.06861 412.455 3.0386 415.705 3.2086C417.795 3.3186 417.875 3.8386 418.015 4.7786C418.135 5.4586 418.225 6.9786 418.005 8.4286C417.835 9.5186 417.865 10.2386 415.865 10.2486C413.815 10.2586 411.805 10.2686 409.405 10.2286C407.315 10.1886 406.595 10.0286 406.455 8.5886Z" fill="#F9F9F6" />
<path d="M 412.004 9.650 C 410.784 9.870 409.704 9.080 409.784 7.910 C 409.874 6.850 410.694 5.920 411.884 5.880 C 412.134 5.850 412.374 5.930 412.644 6.130 C 413.604 6.930 413.604 8.560 412.634 9.320 C 412.454 9.480 412.244 9.590 411.994 9.650 412.004 Z" fill="#2B2727" />
<path d="M 396.014 9.650 C 394.794 9.870 393.714 9.080 393.784 7.910 C 393.874 6.850 394.704 5.920 395.894 5.880 C 396.134 5.850 396.384 5.930 396.654 6.130 C 397.614 6.930 397.594 8.560 396.644 9.320 C 396.464 9.480 396.234 9.590 396.004 9.650 396.014 Z" fill="#2B2727" />
</svg>