<svg xmlns="http://www.w3.org/2000/svg" viewBox="511 2 29 9">
<path d="M539.768 6.21008C539.298 8.47008 536.768 10.5301 534.368 10.7701C531.128 11.0901 527.838 9.73008 528.068 7.59008C528.318 5.20008 530.538 3.26008 533.468 3.03008C536.718 2.78008 540.208 4.11008 539.768 6.21008Z" fill="#F9F9F6" />
<path d="M511.038 6.21008C511.508 8.47008 514.038 10.5301 516.438 10.7701C519.678 11.0901 522.968 9.73008 522.738 7.59008C522.488 5.20008 520.268 3.26008 517.338 3.03008C514.088 2.78008 510.598 4.11008 511.038 6.21008Z" fill="#F9F9F6" />
<path d="M 533.837 10.138 C 532.617 10.358 531.537 9.568 531.617 8.398 C 531.707 7.338 532.527 6.408 533.717 6.368 C 533.967 6.338 534.207 6.418 534.477 6.618 C 535.437 7.418 535.437 9.048 534.467 9.808 C 534.287 9.968 534.077 10.078 533.827 10.138 533.837 Z" fill="#2B2727" />
<path d="M 517.838 10.138 C 516.618 10.358 515.538 9.568 515.608 8.398 C 515.698 7.338 516.528 6.408 517.718 6.368 C 517.958 6.338 518.208 6.418 518.478 6.618 C 519.438 7.418 519.418 9.048 518.468 9.808 C 518.288 9.968 518.058 10.078 517.828 10.138 517.838 Z" fill="#2B2727" />
</svg>