<svg xmlns="http://www.w3.org/2000/svg" viewBox="259 2 23 10">
<clipPath id="angry-clip-right"><polygon points="282.896,2.02069 273.406,8.760696666666666 273.406,12.6307 282.896,12.6307" /></clipPath><clipPath id="angry-clip-left"><polygon points="257.965,1.94061 267.455,8.680603333333334 267.455,12.5506 257.965,12.5506" /></clipPath><g clip-path="url(#angry-clip-left)"><path d="M264.725 11.4706C263.595 11.5506 261.845 11.5206 260.785 11.4506C259.485 11.3606 259.045 11.2006 259.015 9.31061C258.995 8.29061 258.965 7.10061 259.145 4.76061C259.265 3.25061 259.795 3.20061 260.765 3.08061C261.475 3.00061 263.035 2.94061 264.535 3.10061C265.665 3.22061 266.415 3.21061 266.425 4.65061C266.435 6.13061 266.455 7.59061 266.415 9.32061C266.375 10.8306 266.205 11.3506 264.725 11.4506V11.4706Z" fill="#F9F9F6" />
<path d="M 263.340 9.613 C 261.754 9.899 260.350 8.872 260.441 7.351 C 260.558 5.973 261.637 4.764 263.184 4.712 C 263.496 4.673 263.821 4.777 264.172 5.037 C 265.420 6.077 265.394 8.196 264.159 9.184 C 263.925 9.392 263.626 9.535 263.327 9.613 263.235 Z" fill="#2B2727" />
</g><g clip-path="url(#angry-clip-right)"><path d="M280.166 11.5507C279.036 11.6307 277.286 11.6007 276.226 11.5307C274.936 11.4407 274.486 11.2807 274.456 9.39069C274.436 8.37069 274.406 7.18069 274.586 4.84069C274.706 3.33069 275.226 3.28069 276.206 3.16069C276.916 3.08069 278.476 3.02069 279.976 3.18069C281.106 3.30069 281.846 3.29069 281.866 4.73069C281.876 6.21069 281.896 7.67069 281.856 9.40069C281.816 10.9107 281.646 11.4307 280.166 11.5307V11.5507Z" fill="#F9F9F6" />
<path d="M 278.620 9.613 C 277.034 9.899 275.630 8.872 275.734 7.351 C 275.851 5.973 276.917 4.764 278.464 4.712 C 278.789 4.673 279.101 4.777 279.452 5.037 C 280.700 6.077 280.700 8.196 279.439 9.184 C 279.205 9.392 278.932 9.535 278.607 9.613 278.515 Z" fill="#2B2727" />
</g><line x1="281.896" y1="3.02069" x2="274.406" y2="8.760696666666666" stroke="#231F20" stroke-width="0.75" /><line x1="258.965" y1="2.94061" x2="266.455" y2="8.680603333333334" stroke="#231F20" stroke-width="0.75" /></svg>
