<svg xmlns="http://www.w3.org/2000/svg" viewBox="259 2 23 10">
<path d="M264.725 11.4706C263.595 11.5506 261.845 11.5206 260.785 11.4506C259.485 11.3606 259.045 11.2006 259.015 9.31061C258.995 8.29061 258.965 7.10061 259.145 4.76061C259.265 3.25061 259.795 3.20061 260.765 3.08061C261.475 3.00061 263.035 2.94061 264.535 3.10061C265.665 3.22061 266.415 3.21061 266.425 4.65061C266.435 6.13061 266.455 7.59061 266.415 9.32061C266.375 10.8306 266.205 11.3506 264.725 11.4506V11.4706Z" fill="#F9F9F6" />
<path d="M280.166 11.5507C279.036 11.6307 277.286 11.6007 276.226 11.5307C274.936 11.4407 274.486 11.2807 274.456 9.39069C274.436 8.37069 274.406 7.18069 274.586 4.84069C274.706 3.33069 275.226 3.28069 276.206 3.16069C276.916 3.08069 278.476 3.02069 279.976 3.18069C281.106 3.30069 281.846 3.29069 281.866 4.73069C281.876 6.21069 281.896 7.67069 281.856 9.40069C281.816 10.9107 281.646 11.4307 280.166 11.5307V11.5507Z" fill="#F9F9F6" />
<path d="M 278.690 10.326 C 276.860 10.656 275.240 9.471 275.360 7.716 C 275.495 6.126 276.725 4.731 278.510 4.671 C 278.885 4.626 279.245 4.746 279.650 5.046 C 281.090 6.246 281.090 8.691 279.635 9.831 C 279.365 10.071 279.050 10.236 278.675 10.326 278.515 Z" fill="#2B2727" />
<path d="M 263.410 10.326 C 261.580 10.656 259.960 9.471 260.065 7.716 C 260.200 6.126 261.445 4.731 263.230 4.671 C 263.590 4.626 263.965 4.746 264.370 5.046 C 265.810 6.246 265.780 8.691 264.355 9.831 C 264.085 10.071 263.740 10.236 263.395 10.326 263.235 Z" fill="#2B2727" />
</svg>