<svg xmlns="http://www.w3.org/2000/svg" viewBox="259 2 23 10">
<path d="M264.725 11.4706C263.595 11.5506 261.845 11.5206 260.785 11.4506C259.485 11.3606 259.045 11.2006 259.015 9.31061C258.995 8.29061 258.965 7.10061 259.145 4.76061C259.265 3.25061 259.795 3.20061 260.765 3.08061C261.475 3.00061 263.035 2.94061 264.535 3.10061C265.665 3.22061 266.415 3.21061 266.425 4.65061C266.435 6.13061 266.455 7.59061 266.415 9.32061C266.375 10.8306 266.205 11.3506 264.725 11.4506V11.4706Z" fill="#F9F9F6" />
<path d="M280.166 11.5507C279.036 11.6307 277.286 11.6007 276.226 11.5307C274.936 11.4407 274.486 11.2807 274.456 9.39069C274.436 8.37069 274.406 7.18069 274.586 4.84069C274.706 3.33069 275.226 3.28069 276.206 3.16069C276.916 3.08069 278.476 3.02069 279.976 3.18069C281.106 3.30069 281.846 3.29069 281.866 4.73069C281.876 6.21069 281.896 7.67069 281.856 9.40069C281.816 10.9107 281.646 11.4307 280.166 11.5307V11.5507Z" fill="#F9F9F6" />
<path d="M 278.515 10.553 C 277.295 10.773 276.215 9.983 276.295 8.813 C 276.385 7.753 277.205 6.823 278.395 6.783 C 278.645 6.753 278.885 6.833 279.155 7.033 C 280.115 7.833 280.115 9.463 279.145 10.223 C 278.965 10.383 278.755 10.493 278.505 10.553 278.515 Z" fill="#2B2727" />
<path d="M 263.235 10.553 C 262.015 10.773 260.935 9.983 261.005 8.813 C 261.095 7.753 261.925 6.823 263.115 6.783 C 263.355 6.753 263.605 6.833 263.875 7.033 C 264.835 7.833 264.815 9.463 263.865 10.223 C 263.685 10.383 263.455 10.493 263.225 10.553 263.235 Z" fill="#2B2727" />
</svg>
