<svg xmlns="http://www.w3.org/2000/svg" viewBox="511 2 29 9">
<path d="M539.768 6.21008C539.298 8.47008 536.768 10.5301 534.368 10.7701C531.128 11.0901 527.838 9.73008 528.068 7.59008C528.318 5.20008 530.538 3.26008 533.468 3.03008C536.718 2.78008 540.208 4.11008 539.768 6.21008Z" fill="#F9F9F6" />
<path d="M511.038 6.21008C511.508 8.47008 514.038 10.5301 516.438 10.7701C519.678 11.0901 522.968 9.73008 522.738 7.59008C522.488 5.20008 520.268 3.26008 517.338 3.03008C514.088 2.78008 510.598 4.11008 511.038 6.21008Z" fill="#F9F9F6" />
<path d="M 533.837 7.312 C 532.617 7.532 531.537 6.742 531.617 5.572 C 531.707 4.512 532.527 3.582 533.717 3.542 C 533.967 3.512 534.207 3.592 534.477 3.792 C 535.437 4.592 535.437 6.222 534.467 6.982 C 534.287 7.142 534.077 7.252 533.827 7.312 533.837 Z" fill="#2B2727" />
<path d="M 517.838 7.312 C 516.618 7.532 515.538 6.742 515.608 5.572 C 515.698 4.512 516.528 3.582 517.718 3.542 C 517.958 3.512 518.208 3.592 518.478 3.792 C 519.438 4.592 519.418 6.222 518.468 6.982 C 518.288 7.142 518.058 7.252 517.828 7.312 517.838 Z" fill="#2B2727" />
</svg>
