<svg xmlns="http://www.w3.org/2000/svg" viewBox="134 0 22 14">
<path d="M139.641 13.4715C138.521 13.6015 136.801 13.5615 135.751 13.4515C134.471 13.3115 134.031 13.0515 134.011 10.0515C134.001 8.43146 133.961 6.54147 134.141 2.81147C134.271 0.421465 134.791 0.32146 135.751 0.14146C136.461 0.00145978 137.991 -0.0985359 139.481 0.161464C140.581 0.351464 141.331 0.331465 141.341 2.63147C141.351 4.99147 141.351 7.31146 141.321 10.0715C141.271 12.4815 141.101 13.3015 139.641 13.4715Z" fill="#F9F9F6" />
<path d="M153.811 13.5616C152.711 13.6916 150.971 13.6515 149.921 13.5415C148.651 13.4015 148.201 13.1415 148.181 10.1415C148.171 8.52155 148.131 6.63155 148.321 2.90155C148.441 0.51155 148.961 0.411552 149.931 0.231552C150.631 0.091552 152.171 -0.00845131 153.651 0.251549C154.771 0.441549 155.501 0.42155 155.511 2.72155C155.521 5.08155 155.531 7.40155 155.491 10.1616C155.451 12.5716 155.271 13.3916 153.811 13.5616Z" fill="#F9F9F6" />
<path d="M 152.416 9.477 C 150.586 9.807 148.966 8.622 149.086 6.867 C 149.221 5.277 150.451 3.882 152.236 3.822 C 152.611 3.777 152.971 3.897 153.376 4.197 C 154.816 5.397 154.816 7.842 153.361 8.982 C 153.091 9.222 152.776 9.387 152.401 9.477 152.241 Z" fill="#2B2727" />
<path d="M 138.336 9.477 C 136.506 9.807 134.886 8.622 134.991 6.867 C 135.126 5.277 136.371 3.882 138.156 3.822 C 138.516 3.777 138.891 3.897 139.296 4.197 C 140.736 5.397 140.706 7.842 139.281 8.982 C 139.011 9.222 138.666 9.387 138.321 9.477 138.161 Z" fill="#2B2727" />
</svg>