<svg xmlns="http://www.w3.org/2000/svg" viewBox="511 2 29 9">
<path d="M539.768 6.21008C539.298 8.47008 536.768 10.5301 534.368 10.7701C531.128 11.0901 527.838 9.73008 528.068 7.59008C528.318 5.20008 530.538 3.26008 533.468 3.03008C536.718 2.78008 540.208 4.11008 539.768 6.21008Z" fill="#F9F9F6" />
<path d="M511.038 6.21008C511.508 8.47008 514.038 10.5301 516.438 10.7701C519.678 11.0901 522.968 9.73008 522.738 7.59008C522.488 5.20008 520.268 3.26008 517.338 3.03008C514.088 2.78008 510.598 4.11008 511.038 6.21008Z" fill="#F9F9F6" />
<path d="M 534.012 10.455 C 532.182 10.785 530.562 9.600 530.682 7.845 C 530.817 6.255 532.047 4.860 533.832 4.800 C 534.207 4.755 534.567 4.875 534.972 5.175 C 536.412 6.375 536.412 8.820 534.957 9.960 C 534.687 10.200 534.372 10.365 533.997 10.455 533.837 Z" fill="#2B2727" />
<path d="M 518.013 10.455 C 516.183 10.785 514.563 9.600 514.668 7.845 C 514.803 6.255 516.048 4.860 517.833 4.800 C 518.193 4.755 518.568 4.875 518.973 5.175 C 520.413 6.375 520.383 8.820 518.958 9.960 C 518.688 10.200 518.343 10.365 517.998 10.455 517.838 Z" fill="#2B2727" />
</svg>
