  <!-- antennae -->
<svg width="17" height="13" viewBox="0 0 17 13" fill="none" xmlns="http://www.w3.org/2000/svg" data-z-order="behind" data-width-percent="50" data-position-x="body-center" data-position-y="5%" data-anchor="bottom" data-color='["#FFC2E2", "#F34B65", "#FA709A", "#F7AB39", "#F7CF47", "#6EDCD9", "#92D6CC", "#C7EDE5", "#A297DE", "#D4C2FF"]'>
<path d="M3.38995 12.94L3.47998 4.66999C3.47998 4.45999 3.31998 4.28999 3.09998 4.29999C2.33998 4.33999 0.689941 4.25 0.689941 2.81C0.689941 0.940005 7.31997 0.210032 7.21997 2.40003C7.13997 4.03003 5.96994 4.26999 5.37994 4.28999C5.18994 4.28999 5.02996 4.45002 5.01996 4.64002L4.72998 12.85" fill="currentColor" stroke="#231F20"  stroke-miterlimit="10"/>
<path d="M3.38995 12.94L3.47998 4.66999C3.47998 4.45999 3.31998 4.28999 3.09998 4.29999C2.33998 4.33999 0.689941 4.25 0.689941 2.81C0.689941 0.940005 7.31997 0.210032 7.21997 2.40003C7.13997 4.03003 5.96994 4.26999 5.37994 4.28999C5.18994 4.28999 5.02996 4.45002 5.01996 4.64002L4.72998 12.85" fill="currentColor" stroke="#231F20"  stroke-miterlimit="10"/>
<path d="M13.7503 12.94L13.6503 4.66999C13.6503 4.45999 13.8203 4.28999 14.0303 4.29999C14.8003 4.33999 16.4403 4.25 16.4403 2.81C16.4403 0.940005 9.8103 0.210032 9.9203 2.40003C9.9903 4.03003 11.1703 4.26999 11.7603 4.28999C11.9503 4.28999 12.1003 4.45002 12.1103 4.64002L12.4003 12.85" fill="currentColor" stroke="#231F20"  stroke-miterlimit="10"/>
<path d="M13.7503 12.94L13.6503 4.66999C13.6503 4.45999 13.8203 4.28999 14.0303 4.29999C14.8003 4.33999 16.4403 4.25 16.4403 2.81C16.4403 0.940005 9.8103 0.210032 9.9203 2.40003C9.9903 4.03003 11.1703 4.26999 11.7603 4.28999C11.9503 4.28999 12.1003 4.45002 12.1103 4.64002L12.4003 12.85" fill="currentColor" stroke="#231F20"  stroke-miterlimit="10"/>
</svg>
