<svg width="35" height="14" viewBox="0 0 35 14" fill="none" xmlns="http://www.w3.org/2000/svg" data-z-order="front" data-width-percent="150" data-position-x="body-center" data-position-y="10%" data-anchor="bottom" data-color='["#FFC2E2", "#F34B65", "#FA709A", "#F7AB39", "#F7CF47", "#6EDCD9", "#92D6CC", "#C7EDE5", "#A297DE", "#D4C2FF"]'>
  <!-- Bowler -->
<path d="M27.73 8.09C27.97 9.49 27.4899 10.56 26.1999 11.2C24.3499 12.12 20.5699 12.39 17.9499 12.39C15.3299 12.39 11.0299 12.21 9.18994 11.2C8.01994 10.56 8.19999 9.49 8.42999 8.16C8.95999 5.13 10.8499 1.44 17.9499 1.44C25.0499 1.44 27.2 5.07 27.73 8.1V8.09Z" fill="currentColor" stroke="#231F20" stroke-width="0.6" stroke-miterlimit="10"/>
<path d="M8.47998 7.87001C8.47998 7.87001 14.0799 7.26001 17.8799 7.26001C21.6799 7.26001 27.79 7.87001 27.79 7.87001" stroke="#231F20" stroke-width="0.6" stroke-miterlimit="10"/>
<path d="M33.6001 11.05C34.5401 12.11 29.9601 13.03 17.9101 13.03C5.86009 13.03 0.550102 12.1 1.4901 11.05C2.3501 10.09 7.67009 9.35999 17.9101 9.35999C28.1501 9.35999 32.7401 10.08 33.6001 11.05Z" fill="currentColor" stroke="#231F20" stroke-width="0.6" stroke-miterlimit="10"/>
</svg>
