<svg width="38" height="13" viewBox="0 0 38 13" fill="none" xmlns="http://www.w3.org/2000/svg" data-z-order="front" data-width-percent="140" data-position-x="body-center" data-position-y="above-body" data-anchor="center" >
  <!-- mouse ears -->
<path d="M7.69985 11.86C5.51985 11.2 -1.23016 9.02009 2.24984 3.78009C5.72984 -1.45991 9.92984 1.71008 11.1298 3.83008C11.5098 4.50008 12.4698 7.87006 12.4698 7.87006" fill="currentColor"/>
<path d="M7.69985 11.86C5.51985 11.2 -1.23016 9.02009 2.24984 3.78009C5.72984 -1.45991 9.92984 1.71008 11.1298 3.83008C11.5098 4.50008 12.4698 7.87006 12.4698 7.87006" fill="none" stroke="#231F20" stroke-width="0.75" stroke-miterlimit="10"/>
<path d="M30.48 11.86C32.66 11.2 39.41 9.02009 35.93 3.78009C32.45 -1.45991 28.25 1.71008 27.05 3.83008C26.67 4.50008 25.71 7.87006 25.71 7.87006" fill="currentColor"/>
<path d="M30.48 11.86C32.66 11.2 39.41 9.02009 35.93 3.78009C32.45 -1.45991 28.25 1.71008 27.05 3.83008C26.67 4.50008 25.71 7.87006 25.71 7.87006" fill="none" stroke="#231F20" stroke-width="0.75" stroke-miterlimit="10"/>
</svg>
