<svg width="70" height="30" viewBox="0 0 70 30" fill="none" xmlns="http://www.w3.org/2000/svg" data-z-order="front" data-width-percent="120" data-position-x="body-center" data-position-y="eyes" data-anchor="center">
  <!-- glasses -->

<path d="M21.5724 6.92131C26.6124 6.92131 30.9899 10.6956 31.7548 15.7028C32.1714 18.4359 31.5021 21.169 29.8699 23.3952C28.2377 25.6214 25.8407 27.0804 23.1158 27.4983C22.59 27.5805 22.0641 27.6216 21.5383 27.6216C16.4983 27.6216 12.1208 23.8473 11.356 18.8401C10.9394 16.107 11.6086 13.3807 13.2408 11.1477C14.873 8.91461 17.27 7.46244 19.9949 7.0446C20.5139 6.9624 21.0466 6.92131 21.5724 6.92131ZM21.5724 4.92114C20.951 4.92114 20.3227 4.9691 19.6944 5.06499C12.9745 6.09932 8.35794 12.4012 9.38915 19.1415C10.3248 25.2515 15.5627 29.6217 21.5383 29.6217C22.1598 29.6217 22.788 29.5738 23.4163 29.4779C30.1363 28.4436 34.746 22.1417 33.7216 15.4014C32.786 9.29135 27.548 4.92114 21.5724 4.92114Z" fill="#241F20"/>
<path d="M47.9468 6.92131C52.9868 6.92131 57.3643 10.6956 58.1292 15.7028C58.5458 18.4359 57.8765 21.169 56.2443 23.3952C54.6121 25.6214 52.2151 27.0804 49.4902 27.4983C48.9644 27.5805 48.4385 27.6216 47.9127 27.6216C42.8727 27.6216 38.4952 23.8473 37.7304 18.8401C37.3138 16.107 37.983 13.3807 39.6152 11.1477C41.2474 8.91461 43.6444 7.46244 46.3693 7.0446C46.8883 6.9624 47.421 6.92131 47.9468 6.92131ZM47.94 4.92114C47.3185 4.92114 46.6903 4.9691 46.062 5.06499C39.342 6.09932 34.7323 12.4012 35.7567 19.1415C36.6923 25.2515 41.9303 29.6217 47.9059 29.6217C48.5273 29.6217 49.1556 29.5738 49.7839 29.4779C56.5038 28.4436 61.1204 22.1417 60.0892 15.4014C59.1536 9.29135 53.9156 4.92114 47.94 4.92114Z" fill="#241F20"/>
<path d="M9.38939 19.1418L0.217773 19.1418" stroke="#241F20" stroke-width="3" stroke-miterlimit="10"/>
<path d="M69.5339 19.1418L60.3691 19.1418" stroke="#241F20" stroke-width="3" stroke-miterlimit="10"/>
</svg>
