<svg width="70" height="30" viewBox="0 0 70 30" fill="none" xmlns="http://www.w3.org/2000/svg">
  <!-- glasses -->

<path d="M21.5724 6.92131C26.6124 6.92131 30.9899 10.6956 31.7548 15.7028C32.1714 18.4359 31.5021 21.169 29.8699 23.3952C28.2377 25.6214 25.8407 27.0804 23.1158 27.4983C22.59 27.5805 22.0641 27.6216 21.5383 27.6216C16.4983 27.6216 12.1208 23.8473 11.356 18.8401C10.9394 16.107 11.6086 13.3807 13.2408 11.1477C14.873 8.91461 17.27 7.46244 19.9949 7.0446C20.5139 6.9624 21.0466 6.92131 21.5724 6.92131ZM21.5724 4.92114C20.951 4.92114 20.3227 4.9691 19.6944 5.06499C12.9745 6.09932 8.35794 12.4012 9.38915 19.1415C10.3248 25.2515 15.5627 29.6217 21.5383 29.6217C22.1598 29.6217 22.788 29.5738 23.4163 29.4779C30.1363 28.4436 34.746 22.1417 33.7216 15.4014C32.786 9.29135 27.548 4.92114 21.5724 4.92114Z" fill="#241F20"/>
<path d="M47.9468 2.86661C52.9868 2.86661 57.3643 6.64089 58.1292 11.6481C58.5458 14.3812 57.8765 17.1075 56.2443 19.3405C54.6121 21.5736 52.2151 23.0258 49.4902 23.4436C48.9644 23.5258 48.4385 23.5669 47.9127 23.5669C42.8727 23.5669 38.4952 19.7926 37.7304 14.7854C37.3138 12.0523 37.983 9.31918 39.6152 7.09298C41.2474 4.86678 43.6444 3.40775 46.3693 2.98991C46.8883 2.90771 47.421 2.86661 47.9468 2.86661ZM47.94 0.866455C47.3185 0.866455 46.6903 0.914403 46.062 1.0103C39.342 2.04463 34.7323 8.3465 35.7567 15.0868C36.6923 21.1968 41.9303 25.567 47.9059 25.567C48.5273 25.567 49.1556 25.5191 49.7839 25.4232C56.5038 24.3889 61.1204 18.087 60.0892 11.3467C59.1536 5.23667 53.9156 0.866455 47.94 0.866455Z" fill="#241F20"/>
<path d="M9.38939 19.1418L0.217773 20.5461" stroke="#241F20" stroke-width="3" stroke-miterlimit="10"/>
<path d="M69.5339 11.7229L60.3691 13.1271" stroke="#241F20" stroke-width="3" stroke-miterlimit="10"/>
</svg>
