<svg width="41" height="19" viewBox="0 0 41 19" fill="none" xmlns="http://www.w3.org/2000/svg" data-position-y="50%" data-anchor="bottom" data-width-percent="140" data-z-order="front" data-color='["#F7C0A9", "#FFC2E2", "#F7CF47", "#C7EDE5", "#6EDCD9", "#92D6CC", "#D4C2FF"]'>
<!-- curly hair -->
<path d="M6.22009 7.84005C6.22009 7.84005 6.11009 3.91004 9.47009 2.33004C12.8401 0.750041 16.2001 3.90005 16.2001 3.90005C16.2001 3.90005 18.1101 0.410039 21.0201 0.640039C23.9401 0.860039 25.9501 4.23 25.9501 4.23C25.9501 4.23 29.5401 1.09005 33.0201 3.34005C36.5001 5.59005 35.4901 9.19003 35.4901 9.19003C35.4901 9.19003 40.4201 8.33 40.4201 11.29C40.4201 14.25 40.0801 18.08 35.2601 17.85C30.4401 17.62 32.5701 14.93 32.5701 14.93C32.5701 14.93 30.8901 15.38 29.3201 15.04C27.7501 14.7 26.6301 13.35 26.1801 12C25.7301 13.69 23.3801 14.81 21.0201 14.92C18.6701 15.03 16.8701 12.67 16.8701 12.67C16.8701 12.67 16.1901 14.8 14.4001 15.14C12.6101 15.48 10.2501 14.58 10.2501 14.58C10.2501 14.58 8.90008 17.62 6.21008 17.05C3.52008 16.49 0.830078 14.6101 0.830078 11.2801C0.830078 7.95005 6.21008 7.83004 6.21008 7.83004L6.22009 7.84005Z" fill="currentColor" stroke="#231F20" stroke-width="0.75" stroke-miterlimit="10"/>
</svg>
