<svg width="32" height="20" viewBox="0 0 32 20" fill="none" xmlns="http://www.w3.org/2000/svg" data-width-percent="115" data-position-y="-80%" data-position-x="-33%" data-z-order="front" data-color='["#F7C0A9", "#FFC2E2", "#F7CF47", "#C7EDE5", "#6EDCD9", "#92D6CC", "#D4C2FF", "#F34B65", "#FA709A", "#F7AB39", "#7CAB6A", "#8C6BB1", "#37759C"]'>
<!-- ghost HAIR -->
<path d="M30.3698 18.92C30.3698 18.92 31.3998 11.51 28.6498 7.05999C25.9098 2.60999 19.6198 0.789985 15.9598 1.01998C12.2998 1.24998 9.77979 4.21 8.40979 6.72C7.03979 9.23 6.3498 16.07 1.5498 13.67C2.1198 18.12 7.14978 18.91 7.14978 18.91C7.14978 18.91 17.2098 19.48 18.5798 17.66C19.9498 15.83 22.0098 11.16 22.6998 11.39C23.3798 11.61 23.2698 14.13 23.0398 17.21" fill="currentColor" stroke="#231F20" stroke-width="0.75" stroke-miterlimit="10"/>
<path d="M30.5599 13.23C30.5599 13.23 24.6399 12.71 21.5599 13.23C21.7899 13.54 21.7899 16.05 21.5599 17.19C21.3299 18.34 30.5599 17.92 30.5599 17.92V13.23Z" fill="currentColor" stroke="#231F20" stroke-width="0.75" stroke-miterlimit="10"/>
</svg>
