<svg width="15" height="9" viewBox="0 0 15 9" fill="none" xmlns="http://www.w3.org/2000/svg" data-z-order="front" data-width-percent="50" data-position-x="20%" data-position-y="-10%" data-anchor="center" data-color='["#FFC2E2", "#F34B65", "#FA709A", "#F7AB39", "#F7CF47", "#6EDCD9", "#92D6CC", "#C7EDE5", "#A297DE", "#D4C2FF"]'>
  <!-- bow -->
<path d="M1.00008 0.640015C1.00008 0.640015 3.84008 1.49999 5.01008 2.42999C6.18008 3.35999 6.49008 4.64001 6.49008 4.64001L6.56008 6.31C6.56008 6.31 3.98008 7.35002 0.670079 7.08002C0.310079 3.92002 0.990079 0.640015 0.990079 0.640015H1.00008Z" fill="currentColor" stroke="#231F20" stroke-width="0.75" stroke-miterlimit="10"/>
<path d="M14.2801 1.93994C14.2801 1.93994 11.3401 2.31993 10.0301 3.04993C8.72012 3.77993 8.21012 4.97992 8.21012 4.97992L7.87012 6.61993C7.87012 6.61993 10.2401 8.06997 13.5501 8.33997C14.4201 5.27997 14.2801 1.93994 14.2801 1.93994Z" fill="currentColor" stroke="#231F20" stroke-width="0.75" stroke-miterlimit="10"/>
<path d="M6.19998 3.14001L5.47998 6.84003L8.57999 7.09003L9.06998 3.59003L6.19998 3.14001Z" fill="currentColor" stroke="#231F20" stroke-width="0.75" stroke-miterlimit="10"/>
</svg>
