<svg xmlns="http://www.w3.org/2000/svg" viewBox="511 2 29 9">
<path d="M539.768 6.21008C539.298 8.47008 536.768 10.5301 534.368 10.7701C531.128 11.0901 527.838 9.73008 528.068 7.59008C528.318 5.20008 530.538 3.26008 533.468 3.03008C536.718 2.78008 540.208 4.11008 539.768 6.21008Z" fill="#F9F9F6" />
<path d="M511.038 6.21008C511.508 8.47008 514.038 10.5301 516.438 10.7701C519.678 11.0901 522.968 9.73008 522.738 7.59008C522.488 5.20008 520.268 3.26008 517.338 3.03008C514.088 2.78008 510.598 4.11008 511.038 6.21008Z" fill="#F9F9F6" />
<path d="M533.837 9.56005C532.617 9.78005 531.537 8.99005 531.617 7.82005C531.707 6.76005 532.527 5.83005 533.717 5.79005C533.967 5.76005 534.207 5.84005 534.477 6.04005C535.437 6.84005 535.437 8.47005 534.467 9.23005C534.287 9.39005 534.077 9.50005 533.827 9.56005H533.837Z" fill="#2B2727" />
<path d="M517.838 9.56005C516.618 9.78005 515.538 8.99005 515.608 7.82005C515.698 6.76005 516.528 5.83005 517.718 5.79005C517.958 5.76005 518.208 5.84005 518.478 6.04005C519.438 6.84005 519.418 8.47005 518.468 9.23005C518.288 9.39005 518.058 9.50005 517.828 9.56005H517.838Z" fill="#2B2727" />
</svg>